<?xml version="1.0" encoding="UTF-8"?>
<svg version="1.1" xmlns="http://www.w3.org/2000/svg" width="1200" height="428">
<path d="M0 0 C1.04607422 -0.01611328 2.09214844 -0.03222656 3.16992188 -0.04882812 C11.96051107 -0.05435332 18.88421722 1.40393095 25.51953125 7.5078125 C29.85451782 12.57810059 31.29878 17.73446482 31.0625 24.3125 C32.82013672 24.24289063 32.82013672 24.24289063 34.61328125 24.171875 C47.24433037 23.81790953 57.02789883 24.90225841 67.05859375 33.3359375 C75.84904305 42.00643915 78.37729936 52.14400196 78.48019409 64.21438599 C78.47569244 65.45469574 78.4711908 66.69500549 78.46655273 67.97290039 C78.47226759 69.31936709 78.47923613 70.66582895 78.48735046 72.01228333 C78.50517018 75.64034984 78.5041353 79.26817305 78.49840808 82.89627004 C78.49530113 85.93549736 78.50142503 88.97467896 78.50744683 92.01389974 C78.52145251 99.18679604 78.51996275 106.35957311 78.50854492 113.5324707 C78.49705632 120.91257697 78.51116065 128.29232014 78.5379414 135.6723786 C78.56014201 142.03023131 78.56672632 148.38797039 78.56086498 154.74585909 C78.55750595 158.53384291 78.55984031 162.32159384 78.57711601 166.10954475 C78.59265405 169.67123723 78.58855474 173.23239365 78.56981087 176.79406548 C78.56440646 178.71143316 78.5785851 180.62882533 78.59350586 182.54614258 C78.52428693 190.70444212 77.48006708 197.31421351 72.0625 203.65234375 C71.4025 204.17957031 70.7425 204.70679688 70.0625 205.25 C69.4025 205.79527344 68.7425 206.34054688 68.0625 206.90234375 C66.0625 208.3125 66.0625 208.3125 63.890625 209.2421875 C61.89636838 210.15849444 61.89636838 210.15849444 61.296875 212.23046875 C61.13703125 212.97941406 60.9771875 213.72835937 60.8125 214.5 C59.14717374 220.14208897 55.86488705 223.086469 51.0625 226.3125 C45.42493154 228.9587056 39.92470577 229.07819492 34 227.25 C29.53660786 225.40397568 26.48297341 222.47509758 24.0625 218.3125 C23.0725 214.8475 23.0725 214.8475 22.0625 211.3125 C7.2125 211.3125 -7.6375 211.3125 -22.9375 211.3125 C-23.4325 214.2825 -23.4325 214.2825 -23.9375 217.3125 C-27.02160649 223.24347402 -30.76124169 225.74640313 -36.9375 228.0625 C-43.84034089 228.92535511 -49.08326534 228.10553407 -54.9375 224.3125 C-59.56743805 219.85654709 -61.67125182 215.7024563 -61.9375 209.3125 C-62.63875 209.250625 -63.34 209.18875 -64.0625 209.125 C-69.45627133 207.60067332 -72.68405051 204.11829144 -75.58555603 199.50036621 C-78.90731935 193.30424993 -78.63101599 187.19612337 -78.56860352 180.30664062 C-78.57375078 178.91105747 -78.58103813 177.51548083 -78.59028625 176.11991882 C-78.60870631 172.35319085 -78.59592209 168.58717618 -78.57619596 164.82047844 C-78.55972975 160.86488993 -78.56863338 156.90934379 -78.57371521 152.95373535 C-78.57822732 146.31295467 -78.56242141 139.67245647 -78.53442383 133.03173828 C-78.50237578 125.37158979 -78.50239047 117.71195056 -78.5196386 110.05176592 C-78.53554329 102.66043796 -78.52874488 95.26929539 -78.51170158 87.87797546 C-78.50485764 84.74259967 -78.50583603 81.60737367 -78.51324654 78.47200012 C-78.52094985 74.77485444 -78.50865302 71.07828311 -78.48139763 67.38123512 C-78.47130987 65.38993732 -78.48065418 63.39857024 -78.49072266 61.40727234 C-78.3748916 50.46006851 -75.34141865 42.41910537 -67.9375 34.3125 C-58.15174052 25.18053049 -48.4089134 23.81462689 -35.5234375 24.171875 C-34.34007812 24.21828125 -33.15671875 24.2646875 -31.9375 24.3125 C-31.75574219 22.46011719 -31.75574219 22.46011719 -31.5703125 20.5703125 C-30.63679776 13.18351116 -26.43671108 8.35367627 -20.9765625 3.5390625 C-14.46813843 -0.37596654 -7.36192562 -0.02259646 0 0 Z M-17.9375 14.3125 C-19.55024876 16.28328031 -19.55024876 16.28328031 -20.375 18.4375 C-20.68308594 19.12070312 -20.99117187 19.80390625 -21.30859375 20.5078125 C-22.04719183 22.30874611 -22.04719183 22.30874611 -21.9375 24.3125 C-7.7475 24.3125 6.4425 24.3125 21.0625 24.3125 C20.54816637 17.66551848 20.54816637 17.66551848 16.6875 13.9375 C16.08164063 13.45539062 15.47578125 12.97328125 14.8515625 12.4765625 C10.2496585 9.48231055 5.09528016 10.054053 -0.1875 10 C-1.11691406 9.97099609 -2.04632813 9.94199219 -3.00390625 9.91210938 C-9.20889399 9.8550621 -12.93195289 10.55341941 -17.9375 14.3125 Z M-50.9375 204.3125 C-51.63574523 207.15126749 -51.64128755 209.47446242 -50.9375 212.3125 C-49.04100449 215.45908666 -49.04100449 215.45908666 -45.9375 217.3125 C-41.63475091 218.00401325 -39.72804688 217.82807405 -36.0625 215.4375 C-33.5903747 212.9653747 -33.03244021 212.0087282 -32.5625 208.5625 C-33.08464789 204.03721826 -34.53228165 202.29206605 -37.9375 199.3125 C-43.68578267 197.67841158 -47.61274597 199.32536896 -50.9375 204.3125 Z M35.1875 201.5 C32.9980211 204.39783973 32.0625 205.70753935 32.0625 209.3125 C33.60608438 213.24864016 34.51089864 214.94476576 38.0625 217.3125 C42.27428243 217.78047583 44.34849114 217.77815795 47.9375 215.4375 C50.44916318 212.92583682 50.98403796 212.01865837 51.375 208.5 C50.99085642 204.5817355 49.76993683 203.09956733 47.0625 200.3125 C42.66199738 198.11224869 39.02118272 198.58306749 35.1875 201.5 Z " fill="#3C2C83" transform="translate(180.9375,44.6875)"/>
<path d="M0 0 C0.67728653 -0.00671722 1.35457306 -0.01343445 2.05238342 -0.02035522 C4.28589293 -0.03930522 6.51910067 -0.04325975 8.75268555 -0.04541016 C10.32146829 -0.0518469 11.89024985 -0.05857589 13.45903015 -0.06558228 C16.75168632 -0.07755241 20.04423768 -0.08126405 23.33691406 -0.08007812 C27.51121469 -0.07987649 31.6848225 -0.10701636 35.85896015 -0.14162254 C39.10482215 -0.16412509 42.3505246 -0.16790841 45.59645653 -0.16685867 C47.13230939 -0.16918597 48.66816867 -0.17784296 50.20394325 -0.19352341 C67.85168131 -0.35663926 84.90039577 2.87552558 98.2956543 15.31005859 C107.86039315 25.94453797 110.41432899 38.49768107 110.29174805 52.40380859 C109.63847959 64.22202883 105.41906066 75.74974821 97.0769043 84.29052734 C92.95630809 87.85847888 89.66168583 89.88188479 84.0769043 90.29052734 C84.0769043 90.95052734 84.0769043 91.61052734 84.0769043 92.29052734 C85.0256543 92.35240234 85.9744043 92.41427734 86.9519043 92.47802734 C94.62867582 93.57025093 102.75019007 98.12558591 107.56518555 104.15380859 C116.20678348 116.22631389 118.43630078 129.9819262 116.4519043 144.54052734 C113.72799465 157.67938563 107.78112104 167.74536912 96.7644043 175.60302734 C80.91771897 185.34846274 64.02485633 186.42711858 45.88549805 186.49365234 C44.04665794 186.50220245 44.04665794 186.50220245 42.17066956 186.51092529 C39.59490812 186.52031537 37.01913501 186.52688521 34.44335938 186.53076172 C30.52216705 186.54050805 26.60149058 186.57160575 22.68041992 186.60302734 C20.16544904 186.60955508 17.65047446 186.61480645 15.13549805 186.61865234 C13.3944706 186.63717255 13.3944706 186.63717255 11.61827087 186.65606689 C1.41188013 186.62834516 -7.9674295 185.15839502 -15.51293945 177.72412109 C-23.11926627 169.41109398 -23.3657827 161.8602031 -23.32714844 150.94506836 C-23.33285676 149.48904905 -23.33982281 148.03303421 -23.34794617 146.57702637 C-23.36584165 142.63688184 -23.36471606 138.69696045 -23.35900378 134.75678754 C-23.35590671 131.46162891 -23.36201013 128.16651281 -23.36804253 124.87136024 C-23.38207426 117.09494939 -23.38053773 109.31864843 -23.36914062 101.54223633 C-23.35766025 93.53223012 -23.37173666 85.52255876 -23.3985371 77.51259667 C-23.42072122 70.62319162 -23.4273254 63.73389149 -23.42146069 56.84445328 C-23.41809643 52.7350884 -23.42047067 48.62593815 -23.43771172 44.51660347 C-23.45322224 40.65128109 -23.44918035 36.78645334 -23.43040657 32.92115021 C-23.426732 31.50706766 -23.42979607 30.09294813 -23.44029236 28.67889977 C-23.50117531 19.79487476 -23.18228544 13.22623268 -17.17700195 6.26708984 C-16.61883789 5.82107422 -16.06067383 5.37505859 -15.4855957 4.91552734 C-14.93000977 4.45404297 -14.37442383 3.99255859 -13.80200195 3.51708984 C-9.27569944 0.56228945 -5.35768075 0.0334873 0 0 Z M11.0769043 28.29052734 C11.0769043 45.45052734 11.0769043 62.61052734 11.0769043 80.29052734 C17.4706543 80.35240234 23.8644043 80.41427734 30.4519043 80.47802734 C32.44914551 80.50533936 34.44638672 80.53265137 36.50415039 80.56079102 C53.63979326 80.72058491 53.63979326 80.72058491 68.0769043 72.29052734 C73.44594123 66.2789195 74.70006189 59.17522998 75.0769043 51.29052734 C74.53669936 43.88200254 71.63132812 38.90577078 66.4519043 33.60302734 C59.74017666 28.36176739 51.10342623 27.85065093 42.9128418 27.99755859 C41.6894812 28.00209045 41.6894812 28.00209045 40.44140625 28.00671387 C37.44477367 28.02220647 34.44832392 28.06408744 31.4519043 28.10302734 C24.7281543 28.16490234 18.0044043 28.22677734 11.0769043 28.29052734 Z M11.0769043 103.29052734 C11.0769043 121.11052734 11.0769043 138.93052734 11.0769043 157.29052734 C22.8950293 157.38333984 22.8950293 157.38333984 34.9519043 157.47802734 C37.41900879 157.50533936 39.88611328 157.53265137 42.42797852 157.56079102 C44.41251132 157.56956374 46.39704957 157.57720581 48.3815918 157.58349609 C49.38843018 157.59884399 50.39526855 157.61419189 51.43261719 157.63000488 C61.78712107 157.63378298 69.70187471 155.70314428 77.22924805 148.38818359 C82.33158963 142.59546176 83.05585748 135.75162414 83.0769043 128.29052734 C82.56057609 121.32009653 79.95398506 116.26558517 75.0769043 111.29052734 C63.31369449 101.18151892 46.77862647 102.92262029 32.3269043 103.10302734 C25.3144043 103.16490234 18.3019043 103.22677734 11.0769043 103.29052734 Z " fill="#3C2C83" transform="translate(854.923095703125,68.70947265625)"/>
<path d="M0 0 C18.45345153 17.31723465 26.98265297 40.36293433 28.5 65.3359375 C29.01736146 89.45791564 21.65718578 113.2620424 5.3125 131.25 C4.50167969 132.15363281 3.69085937 133.05726563 2.85546875 133.98828125 C-13.5578595 151.36285859 -36.78971859 161.3414893 -60.6875 162.25 C-61.58082031 162.28996094 -62.47414063 162.32992187 -63.39453125 162.37109375 C-91.17301856 163.00326816 -116.32609351 153.82225165 -136.4375 134.625 C-155.36257317 114.77675253 -162.22055316 89.69089381 -161.8984375 62.90234375 C-161.21777161 37.78913361 -150.14293199 15.83960396 -132.2890625 -1.5234375 C-95.27774453 -33.19979072 -36.06922146 -32.60281533 0 0 Z M-103.6875 19.25 C-104.30238281 19.69988281 -104.91726563 20.14976563 -105.55078125 20.61328125 C-116.79877687 29.46702503 -123.71152947 44.28034791 -125.6875 58.25 C-127.02389861 76.28557079 -124.75109939 93.33877064 -113.51171875 108.109375 C-111.32567044 110.60124354 -109.06385418 112.94000126 -106.6875 115.25 C-106.06230469 115.89582031 -105.43710937 116.54164063 -104.79296875 117.20703125 C-94.82462559 126.83959864 -80.31435153 131.08973906 -66.6875 131.625 C-51.32656834 130.99751096 -37.01185537 125.44223157 -25.93359375 114.69140625 C-13.07778304 100.71769896 -6.92952608 83.77785182 -7.3984375 64.765625 C-8.84917191 47.12155787 -15.44581393 32.43815703 -28.30078125 20.1640625 C-50.82588658 2.09973907 -80.71621648 1.9659975 -103.6875 19.25 Z " fill="#3C2C83" transform="translate(599.6875,92.75)"/>
<path d="M0 0 C19.4122995 20.57760591 25.38336791 45.24274483 24.9765625 72.84765625 C24.17670198 97.50393755 13.44833662 119.26378376 -4.29296875 136.23046875 C-20.84789046 150.38088383 -41.44460539 158.99604104 -63.33203125 159.828125 C-64.22535156 159.86808594 -65.11867188 159.90804687 -66.0390625 159.94921875 C-92.11737327 160.54270106 -117.01250206 152.62591045 -136.33203125 134.828125 C-137.275625 134.00441406 -137.275625 134.00441406 -138.23828125 133.1640625 C-153.43342422 119.14308967 -163.20556119 96.53468052 -164.5090332 76.04589844 C-165.09372179 48.77285469 -161.10856309 23.73614202 -141.5847168 3.12597656 C-140.17987311 1.68088562 -138.75615133 0.25422303 -137.33203125 -1.171875 C-136.52765625 -1.98785156 -135.72328125 -2.80382812 -134.89453125 -3.64453125 C-121.70300671 -16.29364113 -103.40524931 -23.86465567 -85.33203125 -26.171875 C-84.38972656 -26.29304688 -83.44742188 -26.41421875 -82.4765625 -26.5390625 C-51.89306895 -29.65439973 -22.58005472 -21.24414961 0 0 Z M-114.20703125 23.765625 C-125.02991224 37.18914972 -130.27004458 53.29799334 -129.07421875 70.546875 C-127.17940249 87.49686772 -121.03819188 103.70028037 -107.82910156 115.12841797 C-95.33953271 125.05612276 -80.32419046 130.13103416 -64.33203125 128.828125 C-48.33189181 126.75507984 -34.31917211 119.9290692 -24.06982422 107.26904297 C-13.26689573 93.06763127 -8.90471669 75.69258666 -10.60546875 57.98046875 C-12.81625509 42.15040428 -19.90323302 27.13812986 -32.33203125 16.828125 C-57.93889051 -2.19188614 -92.26110046 -0.00913335 -114.20703125 23.765625 Z " fill="#3C2C83" transform="translate(798.33203125,95.171875)"/>
<path d="M0 0 C4.06737744 4.1906313 5.26580668 7.87165085 5.5 13.625 C5.34613464 18.54869158 4.5493071 21.45467674 1.0625 25.125 C-3.2961983 28.34213446 -6.64440114 28.40234354 -11.7890625 27.71484375 C-14.96988496 27.11893284 -18.1047075 26.40748929 -21.25415039 25.66674805 C-42.9465109 20.57575408 -63.53009194 21.07122327 -83.05078125 33.08984375 C-97.27142122 43.11549115 -104.1152217 56.95436791 -107.6875 73.625 C-108.94789332 91.27050645 -106.45947084 109.14627022 -94.74609375 123.1015625 C-94.14925781 123.76929688 -93.55242187 124.43703125 -92.9375 125.125 C-92.39222656 125.75148437 -91.84695313 126.37796875 -91.28515625 127.0234375 C-80.6652183 138.4679824 -65.15222585 143.72085969 -49.9375 145.125 C-49.09316406 145.20878906 -48.24882812 145.29257813 -47.37890625 145.37890625 C-37.20567326 145.87090348 -26.6340604 143.11430864 -16.82543945 140.57910156 C-11.23807567 139.23518631 -5.59785473 139.32447182 -0.4375 141.8125 C3.95693074 145.87734844 5.24907624 148.58889573 5.5 154.5625 C5.35314065 159.52901623 4.46881822 162.35043116 1.0625 166.125 C-12.58715829 178.33909078 -38.65261896 177.82598771 -55.9375 177.125 C-77.1057274 175.63277853 -98.1181109 168.71341015 -113.9375 154.125 C-114.83984375 153.31417969 -115.7421875 152.50335938 -116.671875 151.66796875 C-133.8561252 135.45685979 -143.39733934 112.96998227 -144.140625 89.34765625 C-144.56756784 61.3612831 -137.87643087 37.68474007 -117.9375 17.125 C-117.39867187 16.51269531 -116.85984375 15.90039062 -116.3046875 15.26953125 C-101.65811915 -0.81225359 -77.67425869 -8.63834082 -56.4375 -9.84765625 C-15.92386481 -10.16416902 -15.92386481 -10.16416902 0 0 Z " fill="#3C2C83" transform="translate(430.9375,77.875)"/>
<path d="M0 0 C4.00152242 3.62042505 6.37275531 6.6605032 7.17089844 12.08544922 C7.21164498 13.44975099 7.23194765 14.81477955 7.234375 16.1796875 C7.25091125 16.9036673 7.26744751 17.62764709 7.28448486 18.37356567 C7.33272545 20.66579877 7.35428056 22.95736976 7.375 25.25 C7.40318001 26.81253288 7.43311027 28.37503524 7.46484375 29.9375 C7.53847678 33.7499454 7.58819648 37.56202843 7.625 41.375 C8.53266113 41.3843457 9.44032227 41.39369141 10.37548828 41.40332031 C13.76426814 41.44750484 17.15181226 41.50919111 20.54003906 41.58251953 C22.00248705 41.6106311 23.4650842 41.63189431 24.92773438 41.64599609 C27.03853169 41.66756419 29.14755429 41.71427656 31.2578125 41.765625 C32.52512207 41.78657227 33.79243164 41.80751953 35.09814453 41.82910156 C40.23990402 42.62496022 44.31244237 45.36506182 47.625 49.375 C49.28151469 54.34454408 49.44062524 59.20719849 48.625 64.375 C46.14560603 68.6823654 43.37728923 71.79090359 38.625 73.375 C36.43814807 73.49109059 34.248285 73.55352406 32.05859375 73.5859375 C30.76888672 73.61429687 29.47917969 73.64265625 28.15039062 73.671875 C26.1006685 73.7132487 24.05119603 73.7501446 22.0012207 73.77636719 C20.02011839 73.80389238 18.03931634 73.85087638 16.05859375 73.8984375 C14.87322021 73.91825684 13.68784668 73.93807617 12.46655273 73.95849609 C11.52884033 74.09594238 10.59112793 74.23338867 9.625 74.375 C7.21294259 77.99308612 7.36029273 79.74922323 7.31640625 84.0546875 C7.29124252 85.38932721 7.26584455 86.72396253 7.24023438 88.05859375 C7.21153187 90.15412213 7.18750382 92.24957403 7.16870117 94.34521484 C7.14695806 96.37377553 7.10751281 98.40143999 7.06640625 100.4296875 C7.05295166 101.64124512 7.03949707 102.85280273 7.02563477 104.10107422 C6.36659312 109.48666133 3.63748691 112.86407395 -0.375 116.375 C-6.16388315 118.30462772 -12.25022693 118.34080594 -17.8125 115.8125 C-23.97400188 109.95155918 -24.80635345 105.21007139 -25.04273987 96.8447113 C-25.08261504 94.70896598 -25.1042831 92.57350873 -25.125 90.4375 C-25.15319227 88.97587654 -25.18312421 87.51428554 -25.21484375 86.05273438 C-25.28832539 82.49364155 -25.33813515 78.93468224 -25.375 75.375 C-28.18391312 73.97054344 -30.56435252 74.22935756 -33.703125 74.19921875 C-34.97800781 74.17537109 -36.25289062 74.15152344 -37.56640625 74.12695312 C-39.59174157 74.09194914 -41.61648992 74.06255665 -43.64208984 74.04907227 C-45.60015583 74.03349402 -47.55795585 73.99160534 -49.515625 73.94921875 C-50.68641602 73.93463623 -51.85720703 73.92005371 -53.06347656 73.9050293 C-58.49228441 73.03611586 -61.51817533 70.5249489 -64.75 66.1875 C-66.89835122 61.97203773 -67.17012875 58.00642002 -66.375 53.375 C-64.81456568 48.67523037 -62.17377394 45.59374669 -57.78051758 43.19799805 C-52.27562861 41.31461423 -46.26224419 41.72596158 -40.5 41.6875 C-37.85658148 41.64929484 -35.21356436 41.60027534 -32.5703125 41.55078125 C-30.82258545 41.53398315 -30.82258545 41.53398315 -29.03955078 41.5168457 C-26.45409597 41.67693524 -26.45409597 41.67693524 -25.375 40.375 C-25.26504914 38.25073434 -25.2190574 36.12311049 -25.19921875 33.99609375 C-25.17537109 32.68189453 -25.15152344 31.36769531 -25.12695312 30.01367188 C-25.09205836 27.92267033 -25.06262784 25.83222191 -25.04907227 23.7409668 C-24.9358957 9.13770742 -24.9358957 9.13770742 -20.375 2.375 C-14.5023689 -2.79773227 -6.96517679 -3.35360364 0 0 Z " fill="#EC6726" transform="translate(1048.375,103.625)"/>
<path d="M0 0 C3.3 0 6.6 0 10 0 C10.33 6.27 10.66 12.54 11 19 C13.64 17.68 16.28 16.36 19 15 C25.26270401 13.93534032 31.6789253 14.28467152 37.24609375 17.52734375 C42.5735834 22.00053662 45.63340897 27.84730492 46.23828125 34.69921875 C46.43781594 42.73311566 45.70883751 49.0374392 40.05859375 55.07421875 C33.91807852 60.64930901 29.48319567 61.32836546 21.25390625 61.30078125 C16.83798559 60.8925869 14.51875113 59.61860549 11 57 C10.67 58.32 10.34 59.64 10 61 C6.7 61 3.4 61 0 61 C0 40.87 0 20.74 0 0 Z M13 28 C9.89717509 32.55080986 9.22885568 36.64483113 10 42 C11.78295316 47.15075357 14.1073985 49.59985587 19 52 C22.89255849 52.67928962 26.137097 52.36433682 29.8125 50.8125 C33.63922912 47.64178158 35.09786177 44.51749811 35.9375 39.6875 C36.35015946 34.64294868 34.98064211 31.04380108 32 27 C28.62463227 23.99967313 25.50631991 23.45644744 20.9921875 23.65234375 C17.57258449 24.249098 15.56799621 25.730608 13 28 Z " fill="#3C2C83" transform="translate(332,306)"/>
<path d="M0 0 C3.3 0 6.6 0 10 0 C10.33 6.27 10.66 12.54 11 19 C13.31 17.68 15.62 16.36 18 15 C24.08480029 13.93827191 30.14949043 13.98429584 35.5625 17.1875 C42.05983057 22.08779763 45.15540744 28.03078498 46.2890625 36.04296875 C46.59516709 43.01380515 44.55132529 49.43453539 40.1875 54.875 C35.39256309 59.89106264 31.40979067 61.17892194 24.5 61.375 C19.16909734 61.2593754 14.92318374 60.92318374 11 57 C10.67 58.32 10.34 59.64 10 61 C6.7 61 3.4 61 0 61 C0 40.87 0 20.74 0 0 Z M11.6875 29.5625 C9.42786217 34.16546595 9.18043026 37.95964611 10 43 C11.95859862 46.84724728 14.0682957 50.08727899 18 52 C21.82054344 52.65745489 25.35469314 52.87656941 28.84765625 51.015625 C32.5055414 48.10369677 34.7195398 45.24003926 35.30078125 40.59765625 C35.3316406 33.92175049 34.47669513 30.61822057 29.8125 25.6875 C22.93957417 21.5637445 16.8022827 23.89476782 11.6875 29.5625 Z " fill="#3C2C83" transform="translate(604,306)"/>
<path d="M0 0 C2.375 1.625 2.375 1.625 4.375 3.625 C4.705 2.305 5.035 0.985 5.375 -0.375 C8.675 -0.375 11.975 -0.375 15.375 -0.375 C15.375 14.475 15.375 29.325 15.375 44.625 C12.075 44.625 8.775 44.625 5.375 44.625 C5.045 42.975 4.715 41.325 4.375 39.625 C3.611875 40.264375 2.84875 40.90375 2.0625 41.5625 C-3.4552336 45.79703974 -9.94596123 45.31266435 -16.625 44.625 C-22.83673233 42.42274832 -26.27416441 38.10818552 -29.625 32.625 C-31.87664566 25.87006302 -32.01097369 15.43420672 -29 8.9375 C-22.6715088 -1.19255836 -10.95890501 -4.15682604 0 0 Z M-19.5 13.8125 C-21.56634131 18.97835329 -21.2731066 23.71668612 -19.5 28.9375 C-17.17323878 32.27252442 -15.28410484 33.82996744 -11.625 35.625 C-7.55145006 36.27159523 -5.27224486 36.47924635 -1.62890625 34.58984375 C2.67109615 31.38048645 4.49997394 28.15074468 5.28125 22.859375 C5.46518888 18.47549827 4.73186454 15.31453932 1.95703125 11.859375 C-1.00569433 8.95766665 -3.48035875 7.23417869 -7.6875 7 C-13.05816886 7.85248712 -15.98486904 9.71151388 -19.5 13.8125 Z " fill="#3C2C83" transform="translate(710.625,322.375)"/>
<path d="M0 0 C4.02315565 3.37377802 7.17159822 6.86848196 9.73046875 11.453125 C9.73046875 12.113125 9.73046875 12.773125 9.73046875 13.453125 C-1.30616303 14.24522776 -1.30616303 14.24522776 -5.08203125 11.140625 C-5.80390625 10.25375 -6.52578125 9.366875 -7.26953125 8.453125 C-12.81191592 5.25559538 -17.19633798 4.83508446 -23.26953125 6.453125 C-28.99568027 9.37021978 -32.23933788 13.3625449 -34.26953125 19.453125 C-34.8438526 25.77065985 -34.4674215 30.82924905 -31.26953125 36.453125 C-27.70459547 40.67475948 -24.72767471 43.09383737 -19.1640625 43.671875 C-14.11220561 43.87496472 -10.56862816 43.35251594 -6.26953125 40.453125 C-5.46515625 39.1228125 -5.46515625 39.1228125 -4.64453125 37.765625 C-1.58998244 34.79145906 -0.19809702 35.13083913 3.98046875 35.140625 C5.89828394 35.22091631 7.81576031 35.31765035 9.73046875 35.453125 C8.22410327 41.62922346 5.07476679 46.31791933 -0.30078125 49.75 C-8.40195752 53.92150122 -17.1968348 54.97751265 -26.1328125 52.734375 C-33.87945627 49.81909783 -39.10186857 45.74653469 -43.26953125 38.453125 C-46.35196414 30.74147881 -46.63130553 21.50358882 -44.46484375 13.46875 C-41.27228616 6.37907038 -35.85922434 0.59306039 -28.78125 -2.70703125 C-19.24552027 -5.89549454 -8.53958341 -5.82043895 0 0 Z " fill="#3C2C83" transform="translate(490.26953125,313.546875)"/>
<path d="M0 0 C5.61059258 3.34500445 9.58696595 8.22354745 11.5625 14.4375 C12.36844257 22.2813829 12.65921889 30.02934467 7.5625 36.4375 C3.11117668 41.14197914 -1.12814516 44.09747071 -7.70703125 44.7734375 C-16.93265141 44.87515327 -22.58891515 44.20056074 -29.25 37.6875 C-33.59522715 31.23173395 -35.40527383 25.23271935 -34.4375 17.4375 C-32.99807893 10.69788508 -30.48411797 5.15499868 -24.5703125 1.18359375 C-17.16236151 -2.71032921 -7.73834748 -3.42444113 0 0 Z M-21.4375 11.4375 C-24.5469445 16.27204727 -24.05074826 21.91087715 -23.4375 27.4375 C-21.97534893 31.21172247 -19.81402866 33.18648089 -16.4375 35.4375 C-11.86540696 36.18645238 -8.26739057 35.8217086 -4.0625 33.875 C-0.1737369 30.26400569 1.46043655 27.15919204 1.65625 21.9375 C1.34203944 16.65876255 0.61211603 13.14000609 -3.4375 9.4375 C-6.48185914 7.15423064 -9.6435079 7.01890692 -13.40625 7.1171875 C-16.79179158 7.65106136 -18.87930448 9.24476098 -21.4375 11.4375 Z " fill="#3C2C83" transform="translate(537.4375,322.5625)"/>
<path d="M0 0 C4.89412731 2.97218461 8.28658742 7.06582996 10.875 12.125 C12.4937733 20.70449851 12.53012621 29.00997445 7.5 36.4375 C3.16712117 41.2118807 -1.25380236 44.10395998 -7.76953125 44.7734375 C-16.06402084 44.86488722 -22.02497819 44.58141034 -28.2421875 38.82421875 C-33.70206962 32.93329331 -34.99186398 27.24014855 -34.80859375 19.31640625 C-34.11006286 12.799732 -31.97636183 7.36855881 -27.0625 2.9375 C-19.76227982 -2.88912585 -8.50085719 -3.83114067 0 0 Z M-21.5 11.4375 C-24.76084592 16.81670568 -24.88084801 21.42094794 -23.5 27.4375 C-21.81075866 31.05730286 -20.10566409 33.63466795 -16.5 35.4375 C-11.874585 36.16132449 -8.41681404 35.84497291 -4.125 33.9375 C-0.30457249 30.29899761 1.35576992 26.6466193 1.59375 21.3515625 C1.21898614 16.46089418 -0.39693725 13.1611753 -3.5 9.4375 C-6.48749131 7.0901854 -9.7226165 7.00711284 -13.47265625 7.1328125 C-17.02314667 7.66641222 -18.89741018 9.01648622 -21.5 11.4375 Z " fill="#3C2C83" transform="translate(586.5,322.5625)"/>
<path d="M0 0 C3.63 0 7.26 0 11 0 C14.33112463 7.73996605 17.30706323 15.50371215 20.03173828 23.47436523 C21.03133083 27.01075788 21.03133083 27.01075788 23 30 C23.32798584 29.12674072 23.65597168 28.25348145 23.99389648 27.35375977 C25.20869079 24.12328124 26.42589917 20.89373438 27.64477539 17.66479492 C28.17244465 16.26542318 28.69914064 14.86568405 29.22485352 13.46557617 C29.97939339 11.45655154 30.73739019 9.44886155 31.49609375 7.44140625 C31.95169678 6.23170166 32.4072998 5.02199707 32.87670898 3.77563477 C34 1 34 1 35 0 C36.85287502 -0.07226502 38.70833878 -0.0838122 40.5625 -0.0625 C41.57441406 -0.05347656 42.58632813 -0.04445313 43.62890625 -0.03515625 C44.41136719 -0.02355469 45.19382812 -0.01195312 46 0 C37.46384752 21.86283873 28.23449668 43.42550105 19 65 C15.37 65 11.74 65 8 65 C8.391875 63.783125 8.78375 62.56625 9.1875 61.3125 C9.44724609 60.47420654 9.70699219 59.63591309 9.97460938 58.7722168 C11 56 11 56 12.54101562 53.36254883 C15.44809434 47.92274634 16.60670451 44.17504343 14.90551758 38.24633789 C13.01569097 32.82340948 10.67562073 27.60457255 8.3125 22.375 C7.12868167 19.64377745 5.95721504 16.90752721 4.78788757 14.17007446 C4.05917634 12.47681043 3.31948161 10.78822157 2.56770325 9.10507202 C2.23123276 8.34642853 1.89476227 7.58778503 1.5480957 6.80615234 C1.2487764 6.14142914 0.94945709 5.47670593 0.6410675 4.7918396 C0 3 0 3 0 0 Z " fill="#3C2C83" transform="translate(377,322)"/>
<path d="M0 0 C3.3 0 6.6 0 10 0 C10.01458252 0.85231201 10.02916504 1.70462402 10.04418945 2.58276367 C10.10543285 5.76071175 10.17962029 8.93802546 10.26245117 12.11547852 C10.29559806 13.48775958 10.32366171 14.86017362 10.34643555 16.23266602 C10.38016766 18.21137766 10.4340149 20.18971376 10.48828125 22.16796875 C10.51446533 23.35672607 10.54064941 24.5454834 10.56762695 25.77026367 C11.03531893 29.263825 11.90543572 31.19216035 14 34 C17.44741547 35.72370774 21.23035339 35.50306672 25 35 C27.50160818 33.12379387 28.61945652 31.76108697 30 29 C30.15469367 26.82325217 30.25002106 24.6421652 30.31640625 22.4609375 C30.35830078 21.15898437 30.40019531 19.85703125 30.44335938 18.515625 C30.48317299 17.13541955 30.52288522 15.75521117 30.5625 14.375 C30.60569407 12.98696585 30.64930865 11.59894472 30.69335938 10.2109375 C30.79972 6.80739744 30.90174714 3.40378222 31 0 C34.3 0 37.6 0 41 0 C41 14.85 41 29.7 41 45 C37.7 45 34.4 45 31 45 C30.67 44.01 30.34 43.02 30 42 C29.2575 42.495 28.515 42.99 27.75 43.5 C22.77897498 45.95017347 17.38300047 45.73468773 12 45 C7.12625743 43.29655599 4.74378893 41.06556995 1.796875 36.84375 C-1.32147219 30.269937 -0.41530393 22.60495016 -0.25 15.5 C-0.22990494 13.99481542 -0.21165948 12.48960495 -0.1953125 10.984375 C-0.15155298 7.32237263 -0.08269216 3.66135422 0 0 Z " fill="#3C2C83" transform="translate(800,322)"/>
<path d="M0 0 C6.12926429 4.40049744 6.12926429 4.40049744 6.90234375 7.78515625 C7.15725476 9.76508152 7.30471027 11.75815398 7.4375 13.75 C4.05963015 14.03518601 0.80395349 14.20906184 -2.5625 13.75 C-4.375 11.3125 -4.375 11.3125 -5.5625 8.75 C-8.71900503 7.50401117 -10.14751515 7.61167172 -13.375 8.6875 C-14.096875 9.038125 -14.81875 9.38875 -15.5625 9.75 C-15.71761063 12.18078366 -15.71761063 12.18078366 -14.5625 14.75 C-11.75650256 16.00246238 -9.24132013 16.9173437 -6.3125 17.75 C-0.44555932 19.45170961 3.39794144 20.86495244 7.4375 25.75 C9.4381706 29.75134121 8.73683187 33.79587967 7.4375 37.9375 C4.65810155 41.84602907 2.04787368 43.4717344 -2.5625 44.75 C-9.4003047 45.58554222 -15.93144198 45.63404212 -21.97265625 42.01953125 C-24.60471331 39.91776579 -26.09012692 37.75609504 -27.5625 34.75 C-27.5625 33.1 -27.5625 31.45 -27.5625 29.75 C-24.2625 29.75 -20.9625 29.75 -17.5625 29.75 C-16.9025 31.07 -16.2425 32.39 -15.5625 33.75 C-11.15066926 36.47495428 -7.44575512 35.57767036 -2.5625 34.75 C-2.5625 32.77 -2.5625 30.79 -2.5625 28.75 C-3.25214844 28.57984375 -3.94179688 28.4096875 -4.65234375 28.234375 C-22.79703987 23.55508437 -22.79703987 23.55508437 -26.5625 17.75 C-27.70246904 13.5089963 -28.08423779 10.05434448 -26.4375 5.9375 C-19.5501721 -2.09771588 -9.8901461 -3.4702267 0 0 Z " fill="#3C2C83" transform="translate(759.5625,322.25)"/>
<path d="M0 0 C3.3 0 6.6 0 10 0 C10 3.63 10 7.26 10 11 C13.63 11 17.26 11 21 11 C21 13.64 21 16.28 21 19 C17.37 19 13.74 19 10 19 C10.14029459 23.12525788 10.28697311 27.25011392 10.4375 31.375 C10.47681641 32.550625 10.51613281 33.72625 10.55664062 34.9375 C10.61948242 36.61972656 10.61948242 36.61972656 10.68359375 38.3359375 C10.72025146 39.37282715 10.75690918 40.4097168 10.79467773 41.47802734 C10.84164223 43.99425166 10.84164223 43.99425166 12 46 C14.12576782 46.46651207 14.12576782 46.46651207 16.5625 46.625 C18.7590625 46.810625 18.7590625 46.810625 21 47 C21 49.97 21 52.94 21 56 C7.9415362 56.46453033 7.9415362 56.46453033 2.6875 52.0625 C-0.31457831 48.39329317 -0.11834217 45.15361994 -0.09765625 40.58203125 C-0.09443359 39.32841797 -0.09121094 38.07480469 -0.08789062 36.78320312 C-0.07951172 35.47287109 -0.07113281 34.16253906 -0.0625 32.8125 C-0.05748317 31.47721519 -0.05292059 30.14192859 -0.04882812 28.80664062 C-0.03702695 25.53771527 -0.02056297 22.26888009 0 19 C-1.65 19 -3.3 19 -5 19 C-5 16.36 -5 13.72 -5 11 C-3.35 11 -1.7 11 0 11 C0 7.37 0 3.74 0 0 Z " fill="#3C2C83" transform="translate(775,311)"/>
<path d="M0 0 C0 3.3 0 6.6 0 10 C-2.24609375 10.42317708 -4.4921875 10.84635417 -6.73828125 11.26953125 C-9.34268612 12.11067756 -10.38994611 12.79546467 -12 15 C-12.93917504 18.73047537 -13.18411108 22.33922121 -13.31640625 26.17578125 C-13.35830078 27.33271484 -13.40019531 28.48964844 -13.44335938 29.68164062 C-13.48267578 30.87982422 -13.52199219 32.07800781 -13.5625 33.3125 C-13.60568359 34.53001953 -13.64886719 35.74753906 -13.69335938 37.00195312 C-13.79921496 40.0011947 -13.90129726 43.00051591 -14 46 C-17.3 46 -20.6 46 -24 46 C-24 31.15 -24 16.3 -24 1 C-20.7 1 -17.4 1 -14 1 C-13.67 1.99 -13.34 2.98 -13 4 C-12.154375 3.34 -11.30875 2.68 -10.4375 2 C-6.56563053 -0.25272405 -4.39721203 -0.35177696 0 0 Z " fill="#3C2C83" transform="translate(873,321)"/>
<path d="M0 0 C0 3.3 0 6.6 0 10 C-2.24609375 10.42317708 -4.4921875 10.84635417 -6.73828125 11.26953125 C-9.34268612 12.11067756 -10.38994611 12.79546467 -12 15 C-12.93917504 18.73047537 -13.18411108 22.33922121 -13.31640625 26.17578125 C-13.35830078 27.33271484 -13.40019531 28.48964844 -13.44335938 29.68164062 C-13.48267578 30.87982422 -13.52199219 32.07800781 -13.5625 33.3125 C-13.60568359 34.53001953 -13.64886719 35.74753906 -13.69335938 37.00195312 C-13.79921496 40.0011947 -13.90129726 43.00051591 -14 46 C-17.3 46 -20.6 46 -24 46 C-24 31.15 -24 16.3 -24 1 C-20.7 1 -17.4 1 -14 1 C-13.67 1.99 -13.34 2.98 -13 4 C-12.154375 3.34 -11.30875 2.68 -10.4375 2 C-6.56563053 -0.25272405 -4.39721203 -0.35177696 0 0 Z " fill="#3C2C83" transform="translate(679,321)"/>
</svg>
