<svg xmlns="http://www.w3.org/2000/svg" width="100.32" height="65.66" viewBox="0 0 100.32 65.66">
  <g id="Grupo_2" data-name="Grupo 2" transform="translate(-140 -34.526)">
    <path id="path883" d="M0,0H7.491V9.786a19.026,19.026,0,0,1-.087,1.9h.087a7.657,7.657,0,0,1,6.8-3.549c4.5,0,8.011,2.077,8.011,8.356V30.958H14.808V17.883c0-2.078-.822-2.945-2.468-2.945a4.5,4.5,0,0,0-4.459,3.291,8.608,8.608,0,0,0-.39,2.858v9.872H0Z" transform="translate(143.225 34.526)" fill="#f1511b"/>
    <path id="path887" d="M-16.076-9.877a3.036,3.036,0,0,0-2.944-3.2c-2.165,0-3.2,1.558-3.593,3.2Zm-2.772-8.832c6.583,0,10.306,4.589,10.306,10.781,0,.736-.173,2.338-.173,2.338H-22.787a4.979,4.979,0,0,0,5.2,3.983,11.692,11.692,0,0,0,6.148-2.251l2.771,5.239A15.057,15.057,0,0,1-18.2,4.628c-7.967,0-12.253-5.759-12.253-11.69,0-6.538,4.416-11.647,11.6-11.647" transform="translate(195.279 61.376)" fill="#f1511b"/>
    <path id="path891" d="M-8.038-12.59l-7.187-11.258h8.443l2.425,4.98c.3.562.692,1.472.692,1.472h.087s.432-.91.692-1.472l2.425-4.98H7.982L.838-12.59,7.852-1.549H-.374L-3.058-6.571c-.217-.39-.519-1.126-.519-1.126h-.087s-.3.736-.519,1.126L-6.826-1.549h-8.226Z" transform="translate(199.406 67.034)" fill="#f1511b"/>
    <path id="path895" d="M-10.8-19.708c1.948,0,3.68-2.122,3.68-3.94v-.476h-.693c-2.381,0-5.11.694-5.11,2.555,0,1.039.65,1.862,2.122,1.862m3.291-8.7h.3v-.39c0-1.862-1.429-2.468-3.291-2.468-2.815,0-6.019,2.121-6.019,2.121l-2.6-5.282a16.863,16.863,0,0,1,9.351-2.9c6.279,0,10.046,3.421,10.046,9.093v13.726H-6.556v-1.343a11.751,11.751,0,0,1,.087-1.385h-.087a6.939,6.939,0,0,1-6.321,3.248c-4.157,0-7.576-2.771-7.576-7.188,0-6.494,9.482-7.231,12.946-7.231" transform="translate(225.068 79.997)" fill="#f1511b"/>
    <path id="path899" d="M-2.534-8.776-4.8-12.7l2.266-3.924H2L4.262-12.7,2-8.776Z" transform="translate(236.057 67.51)" fill="#eb3340"/>
    <path id="path903" d="M-3.147-8.329A.866.866,0,0,0-4.1-9.281H-5.961v-6.5h7.4c2.207,0,3.16.953,3.16,3.161V7.735a.867.867,0,0,0,.953.952h4.07a.866.866,0,0,0,.952-.952V6.047h6.928v5.975c0,2.208-.952,3.16-3.161,3.16H.014c-2.209,0-3.161-.952-3.161-3.16Z" transform="translate(145.961 85.004)" fill="#eb3340"/>
    <path id="path907" d="M-19.368-20.338l-1.558-5.152c-.606-1.949-1.255-5.11-1.255-5.11h-.087s-.649,3.162-1.256,5.11l-1.558,5.152ZM-36.687-14.06h.823c.692,0,.909-.217,1.169-.952l8.443-23.512H-18.2l8.443,23.512c.261.736.477.952,1.169.952h.824v6.494h-4.979c-2.166,0-3.032-.649-3.637-2.511l-1.343-3.984h-9.006l-1.342,3.984c-.607,1.862-1.472,2.511-3.637,2.511h-4.979Z" transform="translate(197.12 107.752)" fill="#eb3340"/>
    <path id="path911" d="M-12.88-27.358h2.771A2.973,2.973,0,0,0-7.035-30.6a2.874,2.874,0,0,0-3.032-3.162h-3.766v5.456a.866.866,0,0,0,.953.952m2.121-12.47a2.6,2.6,0,0,0,2.641-2.857,2.49,2.49,0,0,0-2.77-2.641h-2.945v5.5Zm-10.824-5.5H-24.4v-6.5h13.552c6.192,0,10.521,2.771,10.521,8.1a7.426,7.426,0,0,1-3.593,6.582v.087A6.941,6.941,0,0,1,.931-30.085c0,6.754-5.628,9.222-11.777,9.222h-7.576c-2.208,0-3.161-.952-3.161-3.16Z" transform="translate(210.634 121.05)" fill="#eb3340"/>
  </g>
</svg>
