<svg width="500" height="500" viewBox="0 0 500 500" fill="none" xmlns="http://www.w3.org/2000/svg">
<g clip-path="url(#clip0_0_3)">
<path d="M328 77L330.328 78.61L332 80V82H334V84L335.875 84.75C338.351 86.206 338.951 87.378 340 90H342C358.837 109.457 363.992 136.105 364.625 161.063L364.738 165.002C366.99 247.882 366.99 247.882 351 280H349L348.684 281.703C347.874 284.423 346.638 286.393 345.062 288.75L343.472 291.172L342 293H340V295H338V297H336L335.32 298.734C327.318 312.465 304.328 319.176 290 323L287.477 323.676C254.149 331.336 214.497 327.959 185 310C177.888 305.43 177.888 305.43 175 303V301L173.266 300.27C158.338 291.905 151.191 271.02 146.813 255.625C143.035 241.895 142.696 228.039 142.734 213.906L142.729 208.496C142.726 204.741 142.729 200.986 142.739 197.231C142.751 192.461 142.744 187.691 142.732 182.921C142.725 179.204 142.727 175.487 142.732 171.771C142.734 170.013 142.732 168.256 142.727 166.499C142.66 134.414 149.731 107.477 171.613 83.211C173 82 173 82 175 82V80C176.954 78.3529 178.977 76.7888 181.063 75.312C181.69 74.867 182.318 74.422 182.964 73.962C223.934 45.731 288.091 47.767 328 77ZM224 107V109L221.812 109.688C218.426 111.268 216.533 113.272 214 116L212.035 117.855C198.519 132.098 198.841 153.107 198.832 171.367L198.822 176.069C198.816 179.339 198.814 182.609 198.815 185.877C198.815 190.031 198.801 194.185 198.784 198.339C198.773 201.572 198.771 204.805 198.771 208.038C198.771 209.568 198.766 211.098 198.758 212.628C198.665 232.765 201.101 252.288 215.188 267.75C227.077 278.717 241.425 281.678 257.234 281.281C270.564 280.286 281.846 276.921 292 268C302.622 255.232 306.728 241.416 308 225L308.17 222.955C309.86 201.8 309.662 180.219 308.125 159.062L307.887 155.766C306.531 139.218 302.081 123.212 289 112C277.47 103.626 267.785 100.645 253.625 100.687L250.375 100.639C240.679 100.633 232.747 103.007 224 107Z" fill="#391DB3"/>
<path d="M106 367C110.983 368.458 115.164 370.608 119.625 373.188L121.753 374.4C125.937 376.798 130.102 379.228 134.25 381.688C137.882 383.827 141.593 385.828 145.375 387.688C152.225 391.045 158.887 394.728 165.574 398.396C171.356 401.566 177.16 404.687 183 407.75C188.163 410.455 193.268 413.269 198.313 416.188C202.324 418.504 206.339 420.714 210.5 422.75C218.38 426.61 226.038 430.88 233.73 435.098L236.412 436.555C238.118 437.507 239.803 438.495 241.467 439.519C245.994 442.293 245.994 442.293 251.157 443.039C254.536 441.804 257.42 440.239 260.5 438.375C265.306 435.508 270.226 432.84 275.25 430.375C279.24 428.415 283.099 426.405 286.875 424.062C291.013 421.507 295.264 419.327 299.625 417.187C307.205 413.461 314.545 409.39 321.879 405.207C325.702 403.039 329.534 400.886 333.375 398.75L335.535 397.538C339.271 395.455 343.035 393.465 346.867 391.566C352.236 388.906 357.497 386.066 362.75 383.188L365.648 381.606C372.203 378.023 378.696 374.328 385.125 370.523C388.028 368.985 390.859 367.944 394 367C397.497 370.9 399.78 375.17 402.223 379.758C404.612 384.116 407.175 388.36 409.753 392.608C410.479 393.805 411.199 395.006 411.915 396.209C412.664 397.444 413.437 398.664 414.233 399.869C415.398 401.703 415.398 401.703 417 405C415.913 408.313 414.406 409.694 411.41 411.36L409.283 412.55L407.063 413.75L404.853 414.996C399.41 418 399.41 418 396 418V420L394.016 421.066C388.936 423.814 383.909 426.622 378.937 429.563C375.447 431.616 371.961 433.556 368.312 435.313C362.798 437.999 357.577 441.147 352.308 444.277C347.593 447.079 342.82 449.781 337.992 452.383C327.345 458.137 316.798 464.077 306.309 470.113C303.818 471.533 301.318 472.938 298.809 474.328C292.414 477.872 286.061 481.488 279.703 485.096C273.959 488.353 268.181 491.549 262.37 494.686C260.262 495.855 258.231 497.1 256.187 498.375C252.535 500.237 251.047 500.453 247 500C244.12 498.816 241.49 497.27 238.812 495.687L236.462 494.339C233.969 492.902 231.482 491.456 229 490C227.305 489.02 225.61 488.04 223.914 487.062C220.739 485.23 217.568 483.39 214.402 481.543C208.438 478.08 202.398 474.759 196.344 471.457C187.414 466.586 178.562 461.62 169.816 456.428C164.282 453.148 158.673 450.033 153 447C146.253 443.365 139.575 439.604 132.969 435.719C129.289 433.589 125.555 431.569 121.813 429.551C117.665 427.264 113.599 424.843 109.531 422.418C107 420.895 107 420.895 104 420V418L102.225 417.607C98.705 416.647 95.585 414.882 92.375 413.187L90.312 412.147C87.649 410.744 85.358 409.393 83.32 407.157C82.798 403.637 84.7 401.189 86.5 398.313L87.626 396.432C90.207 392.157 92.946 387.993 95.77 383.875C97.14 381.867 97.14 381.867 98.5 379C100.626 374.749 103.313 370.913 106 367Z" fill="#391DB3"/>
<path d="M147 320C150.334 320.735 152.423 321.699 155 324V326L156.703 326.773C159.293 328.157 161.433 329.819 163.75 331.625C185.548 347.528 212.57 353.642 239 356L241.17 356.212C254.581 357.482 267.636 356.458 281 355L284.387 354.664C301.134 352.464 317.291 346.064 332 338L335.2 336.434C337.507 335.266 339.699 333.886 341.75 332.312C345 330 345 330 347 330V328C350 326 350 326 353 326C355.388 350.983 355.388 350.983 355 361C346.712 365.733 338.428 370.347 329.852 374.543C326.869 376.067 324.003 377.725 321.125 379.437C316.795 382.01 312.397 384.35 307.875 386.562C303.003 388.961 298.251 391.597 293.637 394.461C289.848 396.672 285.923 398.591 281.985 400.52C278.856 402.056 275.802 403.645 272.812 405.438C270 407 270 407 267 407V409C264.446 410.37 261.883 411.724 259.312 413.063L257.127 414.244C251.741 417.024 251.741 417.024 248.266 416.914C245.793 415.917 243.679 414.758 241.438 413.313C237.778 411.035 234.002 408.949 230.125 407.063C225.996 405.04 221.951 402.85 218 400.5C214.089 398.172 210.086 396.004 206 394C201.955 392.018 197.993 389.87 194.125 387.562C189.795 384.99 185.397 382.65 180.875 380.437C176.005 378.04 171.256 375.406 166.645 372.543C162.282 369.998 157.737 367.823 153.199 365.613L150 364L147.323 362.76C145 361 145 361 144.477 358.383L144.625 355.237L144.762 351.72L145 348L145.207 344.314C145.437 340.602 145.712 336.896 146 333.187L146.29 329.318C146.522 326.212 146.759 323.106 147 320ZM238.809 -0.203L241.858 -0.22C243.978 -0.23 246.098 -0.236 248.218 -0.24C251.398 -0.25 254.577 -0.28 257.756 -0.313C274.161 -0.399 289.914 1.021 305.688 5.75L308.292 6.508C316.504 8.988 324.27 12.305 332 16C331.42 20.854 329.293 24.419 326.875 28.563L325.662 30.678C324.448 32.7889 323.227 34.8963 322 37L319.848 40.715C318.24 43.4812 316.624 46.2429 315 49C311.028 47.964 307.334 46.746 303.562 45.125C269.964 31.523 229.647 34.532 196 46C193.94 46.919 191.99 47.935 190 49H188C186.122 45.7253 184.248 42.448 182.379 39.168C180.75 36.3111 179.112 33.4594 177.465 30.613L175 26.313L173.795 24.244C171 19.34 171 19.34 171 16C192.369 5.736 215.11 -0.096 238.809 -0.203Z" fill="#391DB3"/>
<path d="M183 74L185 75L173 86L170 85C171.375 83.5 171.375 83.5 173 82H175V80C176.75 78.492 176.75 78.492 179 76.875L181.25 75.242L183 74Z" fill="#391DB3"/>
</g>
<defs>
<clipPath id="clip0_0_3">
<rect width="500" height="500" fill="white"/>
</clipPath>
</defs>
</svg>
