<svg xmlns="http://www.w3.org/2000/svg" width="109.234" height="40" viewBox="0 0 109.234 40">
                            <g transform="translate(-108 -176.042)">
                                <g transform="translate(172.384 208.868)">
                                    <path d="M784.72,525.379l-.193.789h-1.533l-1.049,4.368h-.938l1.049-4.368h-1.533l.186-.789Z" transform="translate(-780.523 -524.761)" fill="#5ba100"></path>
                                    <path d="M823.043,540.164a2.935,2.935,0,0,1,.16-.964,2.591,2.591,0,0,1,.461-.826,2.287,2.287,0,0,1,.726-.577,2.071,2.071,0,0,1,.953-.216,1.242,1.242,0,0,1,.878.29.97.97,0,0,1,.313.744,1.184,1.184,0,0,1-.231.759,1.558,1.558,0,0,1-.6.454,2.972,2.972,0,0,1-.834.223q-.465.06-.941.074a.067.067,0,0,0-.007.03v.074q0,.677.856.677a2.64,2.64,0,0,0,1.012-.208l.075.729a3.03,3.03,0,0,1-.506.164,3.072,3.072,0,0,1-.744.082,1.924,1.924,0,0,1-.714-.119,1.3,1.3,0,0,1-.487-.328,1.31,1.31,0,0,1-.279-.48A1.857,1.857,0,0,1,823.043,540.164Zm2.166-1.846a1.033,1.033,0,0,0-.424.089,1.179,1.179,0,0,0-.357.246,1.588,1.588,0,0,0-.271.368,1.669,1.669,0,0,0-.167.458,3.624,3.624,0,0,0,1.3-.216.6.6,0,0,0,.406-.558.389.389,0,0,0-.108-.268A.491.491,0,0,0,825.209,538.319Z" transform="translate(-818.972 -535.796)" fill="#5ba100"></path>
                                    <path d="M871.392,540.1a2.9,2.9,0,0,1,.16-.964,2.463,2.463,0,0,1,.458-.8,2.137,2.137,0,0,1,.729-.547,2.3,2.3,0,0,1,.982-.2,2.713,2.713,0,0,1,.532.048,2.156,2.156,0,0,1,.458.145l-.32.722a2.086,2.086,0,0,0-.3-.1,1.553,1.553,0,0,0-.4-.045,1.257,1.257,0,0,0-.577.13,1.312,1.312,0,0,0-.435.353,1.623,1.623,0,0,0-.275.528,2.129,2.129,0,0,0-.1.648,1.425,1.425,0,0,0,.041.354.78.78,0,0,0,.134.283.594.594,0,0,0,.257.19,1.085,1.085,0,0,0,.409.067,1.762,1.762,0,0,0,.487-.067A1.939,1.939,0,0,0,874,540.7l.074.737a2.8,2.8,0,0,1-.454.16,2.4,2.4,0,0,1-.64.078,1.848,1.848,0,0,1-.707-.123,1.385,1.385,0,0,1-.495-.335,1.318,1.318,0,0,1-.29-.5A2,2,0,0,1,871.392,540.1Z" transform="translate(-862.693 -535.796)" fill="#5ba100"></path>
                                    <path d="M913.795,537.983q.3-.089.681-.167a4.2,4.2,0,0,1,.837-.078,1.334,1.334,0,0,1,1,.335,1.249,1.249,0,0,1,.32.9,2.263,2.263,0,0,1-.026.331q-.026.175-.063.361l-.491,2.047h-.9l.46-1.95q.037-.163.074-.335a2.017,2.017,0,0,0,.045-.328.662.662,0,0,0-.123-.432.614.614,0,0,0-.51-.171,1.989,1.989,0,0,0-.551.067l-.746,3.148H912.9Z" transform="translate(-900.229 -535.936)" fill="#5ba100"></path>
                                    <path d="M967.647,541.675a1.341,1.341,0,0,1-1.057-.409,1.562,1.562,0,0,1-.365-1.079,3.2,3.2,0,0,1,.134-.893,2.7,2.7,0,0,1,.409-.841,2.263,2.263,0,0,1,.692-.625,1.9,1.9,0,0,1,.982-.245,1.348,1.348,0,0,1,1.057.406,1.548,1.548,0,0,1,.365,1.075,3.315,3.315,0,0,1-.13.9,2.691,2.691,0,0,1-.4.841,2.21,2.21,0,0,1-.692.625A1.936,1.936,0,0,1,967.647,541.675Zm.685-3.334a.849.849,0,0,0-.517.167,1.406,1.406,0,0,0-.379.428,2.269,2.269,0,0,0-.234.569,2.332,2.332,0,0,0-.082.6,1.061,1.061,0,0,0,.141.588.55.55,0,0,0,.5.216.849.849,0,0,0,.517-.167,1.424,1.424,0,0,0,.38-.424,2.212,2.212,0,0,0,.234-.569,2.355,2.355,0,0,0,.082-.6,1.084,1.084,0,0,0-.141-.592A.547.547,0,0,0,968.332,538.341Z" transform="translate(-948.448 -535.796)" fill="#5ba100"></path>
                                    <path d="M1019.556,524.775a1.993,1.993,0,0,1-.592-.089,1.008,1.008,0,0,1-.387-.223.811.811,0,0,1-.208-.335,1.359,1.359,0,0,1-.063-.424,2.435,2.435,0,0,1,.056-.5q.056-.264.123-.525l.863-3.6.938-.149q-.232.975-.465,1.939t-.472,1.938q-.035.156-.078.309a1.132,1.132,0,0,0-.042.3q0,.127,0,.234a.332.332,0,0,0,.06.186.414.414,0,0,0,.167.13.864.864,0,0,0,.29.067Z" transform="translate(-995.542 -518.926)" fill="#5ba100"></path>
                                    <path d="M1049.265,541.675a1.341,1.341,0,0,1-1.057-.409,1.561,1.561,0,0,1-.365-1.079,3.192,3.192,0,0,1,.134-.893,2.7,2.7,0,0,1,.409-.841,2.259,2.259,0,0,1,.692-.625,1.9,1.9,0,0,1,.982-.245,1.348,1.348,0,0,1,1.057.406,1.547,1.547,0,0,1,.365,1.075,3.308,3.308,0,0,1-.13.9,2.687,2.687,0,0,1-.4.841,2.211,2.211,0,0,1-.692.625A1.937,1.937,0,0,1,1049.265,541.675Zm.685-3.334a.849.849,0,0,0-.517.167,1.408,1.408,0,0,0-.379.428,2.273,2.273,0,0,0-.234.569,2.329,2.329,0,0,0-.082.6,1.061,1.061,0,0,0,.141.588.55.55,0,0,0,.5.216.849.849,0,0,0,.517-.167,1.421,1.421,0,0,0,.379-.424,2.195,2.195,0,0,0,.234-.569,2.355,2.355,0,0,0,.082-.6,1.083,1.083,0,0,0-.141-.592A.547.547,0,0,0,1049.95,538.341Z" transform="translate(-1022.252 -535.796)" fill="#5ba100"></path>
                                    <path d="M1095.719,542.281a1.2,1.2,0,0,0,.83-.253,1.274,1.274,0,0,0,.376-.692l.022-.1a2.3,2.3,0,0,1-.357.138,1.5,1.5,0,0,1-.439.063,1.238,1.238,0,0,1-.971-.354,1.358,1.358,0,0,1-.316-.941,2.59,2.59,0,0,1,.186-.99,2.312,2.312,0,0,1,.525-.785,2.4,2.4,0,0,1,.815-.517,2.886,2.886,0,0,1,1.057-.186,3.177,3.177,0,0,1,.607.063,2.036,2.036,0,0,1,.584.2l-.789,3.3a3.977,3.977,0,0,1-.264.778,1.708,1.708,0,0,1-.421.566,1.762,1.762,0,0,1-.644.346,3.151,3.151,0,0,1-.927.119,2.715,2.715,0,0,1-.711-.086,2.672,2.672,0,0,1-.554-.212l.32-.729a1.951,1.951,0,0,0,.465.193A2.239,2.239,0,0,0,1095.719,542.281Zm.654-1.578a1.24,1.24,0,0,0,.412-.074,1.212,1.212,0,0,0,.353-.186l.48-1.987a1.578,1.578,0,0,0-.335-.037,1.473,1.473,0,0,0-1.1.469,1.564,1.564,0,0,0-.312.5,1.675,1.675,0,0,0-.112.614.831.831,0,0,0,.141.513A.559.559,0,0,0,1096.373,540.7Z" transform="translate(-1064.286 -535.866)" fill="#5ba100"></path>
                                    <path d="M1150.185,526.458h-.9l.938-3.892h.9Zm.67-4.48a.543.543,0,0,1-.35-.119.43.43,0,0,1-.149-.357.6.6,0,0,1,.19-.454.617.617,0,0,1,.435-.179.547.547,0,0,1,.354.123.436.436,0,0,1,.153.361.579.579,0,0,1-.193.45A.637.637,0,0,1,1150.854,521.978Z" transform="translate(-1113.981 -520.683)" fill="#5ba100"></path>
                                    <path d="M1183.07,540.271a2.086,2.086,0,0,0-.045.268,2.921,2.921,0,0,0-.022.35,2.325,2.325,0,0,0,.037.421,2.2,2.2,0,0,0,.119.413l-.8.119a1.922,1.922,0,0,1-.142-.38,1.98,1.98,0,0,1-.458.294,1.56,1.56,0,0,1-1.213.015,1.061,1.061,0,0,1-.406-.32,1.371,1.371,0,0,1-.231-.48,2.277,2.277,0,0,1-.074-.6,2.622,2.622,0,0,1,.194-1.012,2.428,2.428,0,0,1,.539-.811,2.533,2.533,0,0,1,.822-.54,2.7,2.7,0,0,1,1.042-.2,3.6,3.6,0,0,1,.584.048,2.39,2.39,0,0,1,.592.182Zm-.489-1.682a1.568,1.568,0,0,0-.32-.03,1.336,1.336,0,0,0-.618.145,1.575,1.575,0,0,0-.488.387,1.772,1.772,0,0,0-.317.555,1.928,1.928,0,0,0-.112.655,1.633,1.633,0,0,0,.03.32.756.756,0,0,0,.1.261.523.523,0,0,0,.19.179.617.617,0,0,0,.3.067.857.857,0,0,0,.421-.1,1.321,1.321,0,0,0,.339-.272,3.279,3.279,0,0,1,.034-.365,3.378,3.378,0,0,1,.071-.342Z" transform="translate(-1141.605 -536.007)" fill="#5ba100"></path>
                                </g>
                                <path d="M490.3,320.141q-.6-.15-1.187-.285a8.239,8.239,0,0,0-1.727-.135,6.508,6.508,0,0,0-.931.075,7.322,7.322,0,0,0-.841.165L482.7,332.1h-4.476l3.6-14.96q1.291-.421,2.9-.8a15.964,15.964,0,0,1,3.62-.375,11.537,11.537,0,0,1,1.667.135,6.377,6.377,0,0,1,1.607.436Z" transform="translate(-334.781 -126.527)" fill="#305a00"></path>
                                <path d="M624.038,325.452a9.972,9.972,0,0,0-.24,3.44,14.379,14.379,0,0,0,.826,3.336h-4.132a3.423,3.423,0,0,1-.63-1.128A8.02,8.02,0,0,1,618,332.241a5.6,5.6,0,0,1-2.283.45,5.761,5.761,0,0,1-2.569-.526,4.836,4.836,0,0,1-1.742-1.412,5.657,5.657,0,0,1-.977-2.073,10.787,10.787,0,0,1,.436-6.444,9.94,9.94,0,0,1,2.043-3.2,9.535,9.535,0,0,1,3.079-2.148,9.433,9.433,0,0,1,3.845-.781q.27,0,.946.03t1.547.135a15.136,15.136,0,0,1,1.832.346,9.564,9.564,0,0,1,1.833.661Zm-3.124-5.543q-.391-.06-.706-.09t-.766-.03a3.757,3.757,0,0,0-1.908.511,5.466,5.466,0,0,0-1.547,1.337,6.366,6.366,0,0,0-1.036,1.908,6.81,6.81,0,0,0-.376,2.253,4.605,4.605,0,0,0,.481,2.283,1.862,1.862,0,0,0,1.773.841,2.817,2.817,0,0,0,1.247-.27,4.591,4.591,0,0,0,1.187-.9q.06-.75.2-1.577t.285-1.517Z" transform="translate(-454.058 -126.658)" fill="#305a00"></path>
                                <path d="M788.859,316.733q.51-.15,1.126-.346t1.382-.361a17.328,17.328,0,0,1,1.712-.27,19.648,19.648,0,0,1,2.148-.105q3.545,0,4.867,2.043t.451,5.588l-2.043,8.531h-4.476l1.983-8.351q.18-.781.286-1.517a3.7,3.7,0,0,0-.015-1.292,1.529,1.529,0,0,0-.556-.9,2.138,2.138,0,0,0-1.337-.345,9.021,9.021,0,0,0-1.772.18L789.7,331.813h-4.476Z" transform="translate(-612.39 -126.244)" fill="#305a00"></path>
                                <path d="M975.607,271.082l4.7-.728-1.153,4.7h5.035l-.91,3.7h-5l-1.334,5.581a7.406,7.406,0,0,0-.228,1.3,2.138,2.138,0,0,0,.152,1.046,1.393,1.393,0,0,0,.682.682,3.02,3.02,0,0,0,1.334.243,7.193,7.193,0,0,0,1.41-.136,10.427,10.427,0,0,0,1.38-.379l.333,3.457a16.1,16.1,0,0,1-1.971.577,11.448,11.448,0,0,1-2.517.243,6.934,6.934,0,0,1-3.245-.622,3.588,3.588,0,0,1-1.638-1.7,5.371,5.371,0,0,1-.425-2.472,15.857,15.857,0,0,1,.425-2.942Z" transform="translate(-781.468 -85.283)" fill="#305a00"></path>
                                <path d="M1098.377,325.358a10.524,10.524,0,0,1,.676-3.725,10.193,10.193,0,0,1,1.908-3.2,9.451,9.451,0,0,1,2.989-2.253,8.762,8.762,0,0,1,3.89-.856,6.148,6.148,0,0,1,1.953.3,4.748,4.748,0,0,1,1.577.871,3.94,3.94,0,0,1,1.051,1.4,4.492,4.492,0,0,1,.376,1.877,5.183,5.183,0,0,1-.751,2.854,5.67,5.67,0,0,1-2.088,1.907,10.333,10.333,0,0,1-3.169,1.067,22.532,22.532,0,0,1-4,.33,2.663,2.663,0,0,0,.916,1.787,3.775,3.775,0,0,0,2.238.526,11.846,11.846,0,0,0,1.953-.165,9.723,9.723,0,0,0,1.862-.5l.331,3.515a13.423,13.423,0,0,1-2.148.6,14,14,0,0,1-2.839.27,8.271,8.271,0,0,1-3.14-.526,5.334,5.334,0,0,1-3.229-3.53A8.841,8.841,0,0,1,1098.377,325.358Zm8.742-6.489a3.787,3.787,0,0,0-2.689,1.1,5.3,5.3,0,0,0-1.517,2.9,16.713,16.713,0,0,0,3-.315,6.529,6.529,0,0,0,1.773-.616,2.01,2.01,0,0,0,.841-.781,1.867,1.867,0,0,0,.21-.841Q1108.741,318.869,1107.119,318.869Z" transform="translate(-895.563 -125.948)" fill="#305a00"></path>
                                <path d="M416.324,251.3a3.1,3.1,0,0,1-6.193.127q0-.063,0-.127a3.1,3.1,0,0,1,6.2,0Z" transform="translate(-273.205 -65.369)" fill="#305a00"></path>
                                <path d="M365.5,327.254s-1.476,9.444-3.246,13.281a5.764,5.764,0,0,1-1.476,1.771h5.607a2.044,2.044,0,0,0,.885-1.18c1.054-3.161,2.889-13.073,2.889-13.073A5.009,5.009,0,0,1,365.5,327.254Z" transform="translate(-228.583 -136.736)" fill="#5ba100"></path>
                                <path d="M113.312,247.527a19.445,19.445,0,0,0,.59-2.656c.56-3.363,1.755-15.61,4.722-21.544a3.654,3.654,0,0,1,.59-.885h0l-5.4,2.063a3.652,3.652,0,0,0-.59.885c-2.842,5.685-3.863,16.707-4.63,19.776l-.59,2.361Z" transform="translate(0 -41.957)" fill="#5ba100"></path>
                                <path d="M225.143,222.283" transform="translate(-105.928 -41.814)" fill="#4c5f20"></path>
                                <path d="M202.64,245.166c-.911-5.381-1.136-7.848-2.066-12.1-2.066-9.444-2.951-10.624-2.951-10.624a3.654,3.654,0,0,0-.59.885,33.523,33.523,0,0,0-2.323,7.064c1.13,5.4,1.759,12.088,2.619,15.956.255,1.149.59,1.18.59,1.18h5.312A21.708,21.708,0,0,1,202.64,245.166Z" transform="translate(-78.408 -41.957)" fill="#4c5f20"></path>
                                <path d="M236.621,205.713a4.564,4.564,0,0,0,.885-2.361c.56-3.363,1.755-20.332,4.722-26.266a3.651,3.651,0,0,1,.59-.885h0l-5.312,2.066a3.651,3.651,0,0,0-.59.885c-2.842,5.685-4.034,19.881-4.427,23.02a7.9,7.9,0,0,1-1.18,3.541Z" transform="translate(-111.504 -0.144)" fill="#769627"></path>
                                <path d="M225.143,222.283" transform="translate(-105.928 -41.814)" fill="#4c5f20"></path>
                                <path d="M202.64,245.166c-.911-5.381-1.136-7.848-2.066-12.1-2.066-9.444-2.951-10.624-2.951-10.624a3.654,3.654,0,0,0-.59.885,33.523,33.523,0,0,0-2.323,7.064c1.13,5.4,1.759,12.088,2.619,15.956.255,1.149.59,1.18.59,1.18h5.312A21.708,21.708,0,0,1,202.64,245.166Z" transform="translate(-78.408 -41.957)" fill="#305a00"></path>
                                <path d="M299.128,196.623l.223-.092C299.249,196.472,299.128,196.623,299.128,196.623Z" transform="translate(-172.83 -18.515)" fill="#4c5f20"></path>
                                <path d="M308.611,203.784a34.581,34.581,0,0,0,1.83-6c-.357-2.576-.63-4.8-1.074-7.446-2.4-14.322-3.117-14.3-3.117-14.3l-4.794,1.974a.177.177,0,0,1,.072.092c2.206,5.295,3.837,20.954,5.017,26.266.255,1.149.59,1.181.59,1.181A5.765,5.765,0,0,0,308.611,203.784Z" transform="translate(-174.935 0)" fill="#305a00"></path>
                                <path d="M236.621,205.713a4.564,4.564,0,0,0,.885-2.361c.56-3.363,1.755-20.332,4.722-26.266a3.651,3.651,0,0,1,.59-.885h0l-5.312,2.066a3.651,3.651,0,0,0-.59.885c-2.842,5.685-4.034,19.881-4.427,23.02a7.9,7.9,0,0,1-1.18,3.541Z" transform="translate(-111.504 -0.144)" fill="#5ba100"></path>
                            </g>
                        </svg>