<svg xmlns="http://www.w3.org/2000/svg" version="1.0" width="274.000000pt" height="354.000000pt" viewBox="0 0 274.000000 354.000000" preserveAspectRatio="xMidYMid meet">

<g transform="translate(0.000000,354.000000) scale(0.100000,-0.100000)" fill="#5fc4e0" stroke="none">
<path d="M882 3020 c-21 -9 -23 -15 -20 -67 l3 -57 74 -13 c97 -16 141 -46 176 -118 27 -54 27 -60 22 -178 -4 -106 -11 -142 -52 -281 -52 -181 -127 -375 -215 -563 -33 -70 -58 -133 -56 -140 4 -11 58 -13 268 -11 l263 3 3 73 3 72 -140 0 c-77 0 -142 4 -145 8 -3 5 17 67 45 138 139 361 200 635 179 805 -23 193 -97 290 -249 325 -64 16 -126 17 -159 4z" fill="#5fc4e0"/>
<path d="M1412 2838 l3 -73 305 0 305 0 0 70 0 70 -308 3 -308 2 3 -72z" fill="#5fc4e0"/>
<path d="M756 2800 c-34 -11 -82 -54 -102 -92 -11 -21 -14 -84 -14 -298 0 -299 1 -302 64 -358 74 -65 170 -49 231 37 l30 43 0 277 0 277 -28 43 c-18 27 -44 50 -70 62 -46 20 -67 22 -111 9z m63 -174 c8 -9 11 -82 9 -242 -3 -221 -4 -229 -23 -229 -19 0 -20 8 -23 230 -1 126 0 235 2 242 7 17 21 16 35 -1z" fill="#5fc4e0"/>
<path d="M1688 2618 c-3 -29 -7 -32 -58 -44 -48 -11 -56 -11 -65 2 -32 49 -31 49 -60 36 -20 -9 -25 -17 -20 -30 19 -45 17 -49 -37 -80 -29 -17 -66 -42 -82 -55 l-30 -24 74 -51 c40 -29 77 -52 83 -52 5 0 7 -9 3 -20 -3 -11 -9 -28 -12 -38 -4 -13 2 -22 21 -30 24 -11 27 -10 40 21 l14 34 60 -16 c59 -15 61 -17 61 -48 0 -31 2 -33 35 -33 32 0 35 2 35 30 0 31 1 32 83 45 20 3 37 2 37 -3 0 -4 6 -16 13 -26 10 -13 20 -16 41 -10 25 6 27 10 22 39 -6 31 -4 34 59 70 36 21 73 47 82 57 16 18 15 20 -18 48 -19 16 -55 44 -81 61 -53 34 -54 36 -33 63 20 27 19 31 -12 45 -24 11 -29 10 -49 -17 -23 -29 -23 -29 -81 -17 -55 11 -58 13 -61 43 -3 28 -7 32 -32 32 -25 0 -29 -4 -32 -32z m-92 -144 c-15 -39 -17 -66 -8 -93 10 -29 10 -30 -13 -21 -42 16 -103 49 -110 60 -3 5 20 23 52 39 66 34 88 38 79 15z m306 -8 c100 -45 101 -47 16 -89 -41 -20 -77 -37 -81 -37 -4 0 -2 12 3 26 13 33 13 80 0 105 -14 25 -3 25 62 -5z m-142 -6 c55 -55 -24 -135 -82 -83 -25 23 -23 68 4 87 30 21 54 20 78 -4z" fill="#5fc4e0"/>
<path d="M1752 1607 c-124 -118 -263 -202 -407 -246 -79 -25 -237 -51 -306 -51 -62 0 -71 -12 -67 -102 l3 -73 56 -3 c73 -4 245 31 334 69 165 69 309 178 424 323 66 83 86 123 70 142 -6 8 -16 14 -21 14 -5 0 -44 -33 -86 -73z" fill="#5fc4e0"/>
<path d="M740 653 c-26 -10 -50 -35 -50 -55 0 -24 17 -23 30 2 19 35 80 20 80 -19 0 -9 -28 -43 -61 -77 -34 -35 -58 -67 -55 -73 10 -16 159 -15 154 2 -3 7 -25 13 -52 15 l-48 3 46 49 c33 35 46 57 46 78 0 49 -49 90 -90 75z" fill="#5fc4e0"/>
<path d="M395 615 c-28 -29 -35 -43 -35 -76 0 -125 171 -166 225 -53 19 41 19 58 -1 100 -20 42 -59 64 -113 64 -33 0 -47 -7 -76 -35z m140 -20 c52 -51 16 -145 -54 -145 -39 0 -79 36 -87 77 -5 27 -1 37 24 63 39 38 83 40 117 5z" fill="#5fc4e0"/>
<path d="M1007 644 c-4 -4 -7 -56 -7 -116 0 -87 3 -108 14 -108 11 0 16 14 18 47 2 39 7 48 23 51 77 11 87 33 19 42 -34 4 -39 8 -39 30 0 21 5 26 38 30 21 3 39 10 40 15 2 11 -95 20 -106 9z" fill="#5fc4e0"/>
<path d="M1260 536 c0 -98 2 -116 15 -116 13 0 15 17 13 112 -2 78 -7 113 -15 116 -10 3 -13 -24 -13 -112z" fill="#5fc4e0"/>
<path d="M1415 638 c-3 -8 -4 -59 -3 -114 l3 -99 73 -3 c57 -2 73 0 70 10 -3 8 -25 14 -56 16 l-51 3 -3 96 c-2 66 -7 98 -15 101 -7 2 -15 -3 -18 -10z" fill="#5fc4e0"/>
<path d="M1660 534 c0 -88 3 -115 13 -112 7 3 13 28 15 69 4 96 8 100 48 54 l34 -40 31 37 c17 21 35 35 40 32 5 -3 9 -39 9 -80 0 -59 3 -74 15 -74 12 0 15 19 15 115 0 105 -2 115 -18 115 -11 0 -33 -20 -51 -45 -18 -25 -38 -45 -44 -45 -7 1 -27 21 -45 45 -53 73 -62 63 -62 -71z" fill="#5fc4e0"/>
<path d="M1987 643 c-4 -3 -7 -55 -7 -115 l0 -108 61 0 c44 0 60 3 57 13 -3 6 -21 13 -41 15 -35 3 -37 5 -37 37 0 32 2 34 38 37 25 2 37 8 37 18 0 10 -12 16 -37 18 -35 3 -38 6 -38 33 0 27 2 29 40 29 29 0 40 4 40 15 0 11 -13 15 -53 15 -30 0 -57 -3 -60 -7z" fill="#5fc4e0"/>
<path d="M2207 632 c-21 -23 -22 -75 -3 -91 8 -7 27 -16 42 -20 63 -17 56 -76 -9 -76 -44 0 -55 -10 -27 -25 47 -25 120 12 120 61 0 28 -33 60 -70 68 -30 6 -35 11 -35 36 0 29 2 30 45 31 32 0 45 5 45 15 0 23 -87 24 -108 1z" fill="#5fc4e0"/>
</g>
</svg>