<svg xmlns="http://www.w3.org/2000/svg" viewBox="0 0 718.5 191.3"><polygon fill="#19BBDA" points="372.5 44 345.1 44 284.7 115 284.7 44 262.5 44 251.5 44 251.5 66 262.5 66 262.5 167.2 251.5 167.2 251.5 189.2 262.5 189.2 284.7 189.2 284.7 147.1 306.9 121 351.9 189.2 378.1 189.2 321.6 103.7 "></polygon><rect x="251.5" fill="#19BBDA" width="126.6" height="22"></rect><polygon fill="#19BBDA" points="0 66 0 77 22 77 22 66 40.9 66 40.9 189.2 63.1 189.2 63.1 66 82 66 82 77 104 77 104 66 104 44 0 44 "></polygon><polygon fill="#19BBDA" points="493.9 66 493.9 77 515.9 77 515.9 66 534.8 66 534.8 189.2 557 189.2 557 66 575.9 66 575.9 77 597.9 77 597.9 66 597.9 44 493.9 44 "></polygon><polygon fill="#19BBDA" points="125.5 189.2 229.9 189.2 229.9 167.2 229.9 154.2 207.9 154.2 207.9 167.2 147.7 167.2 147.7 127 215.4 127 215.4 105 147.7 105 147.7 66 207.9 66 207.9 66.2 207.9 77 207.9 79.2 229.9 79.2 229.9 77 229.9 66.2 229.9 66 229.9 44 125.5 44 "></polygon><path fill="#19BBDA" d="M446.9 108.3l-24.9-6c-9.5-2.3-16.4-8.1-16.4-19.3 0-11 7.3-19.1 24.5-19.1 14.1 0 22.8 7.1 25.7 18.9h23.7c-3.5-24.3-20.3-40.9-49.6-40.9C404.1 41.9 383 55 383 83c0 20.8 10.8 36.1 29.9 40.7l25.7 6.2c14.5 3.5 20.5 10.2 20.5 21 0 11.2-9.5 18.5-24.5 18.5 -15 0-25.4-6.9-29.9-19.6h-23.4c4.1 24.2 21.7 41.6 52.8 41.6 30.3 0 47.5-16.6 47.5-40S469.9 113.9 446.9 108.3"></path><path fill="#19BBDA" d="M666.5 41.9c-31.1 0-52.1 19.9-52.1 51.3v46.9c0 31.3 21 51.3 52.1 51.3 31.1 0 52.1-19.9 52.1-51.3V93.2C718.5 61.8 697.6 41.9 666.5 41.9M696.3 140.1c0 20.3-15.4 29.3-29.9 29.3 -14.5 0-29.9-8.9-29.9-29.3V93.2c0-20.3 15.4-29.3 29.9-29.3 14.5 0 29.9 8.9 29.9 29.3V140.1z"></path></svg>