<?xml version="1.0" encoding="UTF-8"?>
<svg version="1.1" xmlns="http://www.w3.org/2000/svg" width="1024" height="1024">
<path d="M0 0 C3.89521258 0.01611206 7.78938818 0.00000796 11.68457031 -0.01904297 C73.05792117 -0.07052301 134.10151939 13.97433964 189.89550781 39.39111328 C190.9414209 39.86661621 191.98733398 40.34211914 193.06494141 40.83203125 C222.9827969 54.55527132 250.75250048 71.40692276 276.89550781 91.39111328 C277.89094604 92.14859863 277.89094604 92.14859863 278.90649414 92.92138672 C300.25769757 109.25980581 321.53877001 127.57640991 338.96972656 148.12158203 C340.57860749 150.01764657 342.20840269 151.88906011 343.85253906 153.75439453 C350.86781311 161.73281417 357.5702043 169.85335088 363.89550781 178.39111328 C364.37955078 179.03854492 364.86359375 179.68597656 365.36230469 180.35302734 C422.43496589 256.89372746 454.7543823 350.85642885 454.28662109 446.49560547 C454.27050903 450.39081805 454.28661313 454.28499365 454.30566406 458.18017578 C454.3861409 553.23524094 420.82056778 648.22645214 362.89550781 723.39111328 C362.48365234 723.92913574 362.07179688 724.4671582 361.64746094 725.02148438 C345.18021933 746.49699608 326.84869427 767.91688351 306.16503906 785.46533203 C304.26897452 787.07421296 302.39756098 788.70400816 300.53222656 790.34814453 C292.55380693 797.36341857 284.43327021 804.06580977 275.89550781 810.39111328 C275.24807617 810.87515625 274.60064453 811.35919922 273.93359375 811.85791016 C197.39289363 868.93057136 103.43019225 901.24998777 7.79101562 900.78222656 C3.89580304 900.7661145 0.00162745 900.7822186 -3.89355469 900.80126953 C-98.94861984 900.88174637 -193.93983104 867.31617325 -269.10449219 809.39111328 C-269.64251465 808.97925781 -270.18053711 808.56740234 -270.73486328 808.14306641 C-292.21037499 791.6758248 -313.63026241 773.34429974 -331.17871094 752.66064453 C-332.78759186 750.76457999 -334.41738706 748.89316645 -336.06152344 747.02783203 C-343.07679748 739.0494124 -349.77918867 730.92887568 -356.10449219 722.39111328 C-356.58853516 721.74368164 -357.07257813 721.09625 -357.57128906 720.42919922 C-414.64395027 643.8884991 -446.96336668 549.92579772 -446.49560547 454.28662109 C-446.47949341 450.39140851 -446.49559751 446.49723292 -446.51464844 442.60205078 C-446.56612848 381.22869992 -432.52126583 320.18510171 -407.10449219 264.39111328 C-406.62898926 263.3452002 -406.15348633 262.29928711 -405.66357422 261.22167969 C-391.94033414 231.3038242 -375.08868271 203.53412061 -355.10449219 177.39111328 C-354.59950195 176.72748779 -354.09451172 176.0638623 -353.57421875 175.38012695 C-337.23579966 154.02892352 -318.91919556 132.74785109 -298.37402344 115.31689453 C-296.4779589 113.70801361 -294.60654536 112.07821841 -292.74121094 110.43408203 C-284.7627913 103.41880799 -276.64225459 96.71641679 -268.10449219 90.39111328 C-267.45706055 89.90707031 -266.80962891 89.42302734 -266.14257812 88.92431641 C-189.60187801 31.8516552 -95.63917662 -0.46776121 0 0 Z " fill="#FF8000" transform="translate(508.1044921875,61.60888671875)"/>
<path d="M0 0 C0.68416992 0.29745117 1.36833984 0.59490234 2.07324219 0.90136719 C36.35441684 16.05191021 61.15753457 44.50561196 74.80761719 79.04345703 C79.5237736 91.37430025 82.01470036 103.97799346 84 117 C84.176521 118.11947021 84.35304199 119.23894043 84.53491211 120.39233398 C85.30563987 126.3708348 85.24465465 132.35504817 85.25 138.375 C85.25101212 139.39977448 85.25101212 139.39977448 85.25204468 140.44525146 C85.22135202 160.15797077 82.87052873 179.25701949 77.72558594 198.30615234 C77.2269602 200.15737591 76.74132666 202.01213263 76.26660156 203.86962891 C72.24864065 219.55622404 66.56862141 233.69606755 59 248 C58.51289551 248.92603027 58.02579102 249.85206055 57.52392578 250.80615234 C46.45545401 271.61807385 33.30685383 291.28399626 19 310 C18.49500977 310.66362549 17.99001953 311.32725098 17.46972656 312.01098633 C1.13130747 333.36218976 -17.18529663 354.64326219 -37.73046875 372.07421875 C-39.62653329 373.68309967 -41.49794683 375.31289487 -43.36328125 376.95703125 C-51.34170089 383.97230529 -59.4622376 390.67469649 -68 397 C-68.64743164 397.48404297 -69.29486328 397.96808594 -69.96191406 398.46679688 C-146.50261418 455.53945808 -240.46531556 487.85887449 -336.10449219 487.39111328 C-339.99970477 487.37500122 -343.89388036 487.39110532 -347.7890625 487.41015625 C-442.9549048 487.49072687 -537.68669895 453.83511645 -613 396 C-614.15456832 395.13881377 -615.30953234 394.27815785 -616.46484375 393.41796875 C-623.48176772 388.12924294 -629.55781038 382.57681593 -635.34765625 375.97265625 C-638.00067102 372.99924795 -640.77241327 370.21887097 -643.625 367.4375 C-647.99883791 363.10709027 -651.94508665 358.59712598 -655.7734375 353.78125 C-658.01469102 350.98164911 -660.34562055 348.27816477 -662.6875 345.5625 C-673.85404759 332.14183566 -683.34373879 317.51376079 -691.76367188 302.2421875 C-692.9383038 300.11189137 -694.13239537 297.99349883 -695.328125 295.875 C-713.9841143 262.29664631 -724.12544728 224.90194078 -729 187 C-729.10675049 186.18031738 -729.21350098 185.36063477 -729.32348633 184.51611328 C-730.29680693 175.69469114 -730.18606974 166.81568018 -730.18530273 157.95214844 C-730.18746825 155.16585512 -730.20561689 152.37997253 -730.22460938 149.59375 C-730.27903783 132.69702755 -729.24422996 115.93014142 -725.6875 99.375 C-725.4702124 98.33142334 -725.2529248 97.28784668 -725.02905273 96.21264648 C-722.27852905 83.24900711 -718.93290132 70.53300375 -714.8125 57.9375 C-714.56250244 57.16865479 -714.31250488 56.39980957 -714.05493164 55.60766602 C-712.24618912 50.24618912 -712.24618912 50.24618912 -710 48 C-709.84442627 48.7434668 -709.68885254 49.48693359 -709.52856445 50.25292969 C-707.72498451 58.84392698 -705.88223662 67.4258861 -704 76 C-703.68820801 77.42070801 -703.68820801 77.42070801 -703.37011719 78.87011719 C-690.59372003 135.99981019 -661.03236507 192.46889609 -621.265625 235.5234375 C-619.42736171 237.53284944 -617.64892895 239.57138838 -615.875 241.63671875 C-611.38163552 246.7833142 -606.57764515 251.6063717 -601.75 256.4375 C-600.87214844 257.32759766 -599.99429688 258.21769531 -599.08984375 259.13476562 C-593.04089643 265.19699761 -586.69003364 270.66163173 -580 276 C-578.97258733 276.86355171 -577.9491812 277.73194666 -576.93359375 278.609375 C-526.65012438 321.73197471 -461.88559292 348.95362454 -396.8125 359.25 C-395.86568359 359.40114258 -394.91886719 359.55228516 -393.94335938 359.70800781 C-373.33800451 362.75682952 -352.85929503 363.27030751 -332.0625 363.125 C-329.51758171 363.11493526 -326.97265949 363.10581568 -324.42773438 363.09765625 C-318.28506851 363.07595387 -312.14255357 363.04276133 -306 363 C-306.60110596 362.00782471 -307.20221191 361.01564941 -307.8215332 359.9934082 C-336.57131463 312.40910653 -340.9268808 261.23486301 -327.88720703 207.45263672 C-317.2297074 165.97812936 -295.70436079 126.54909621 -268 94 C-267.16855469 92.98421875 -266.33710937 91.9684375 -265.48046875 90.921875 C-253.44513184 76.35017434 -240.00442156 62.51655163 -225 51 C-223.87718617 50.08050101 -222.7576217 49.15702564 -221.640625 48.23046875 C-193.50678668 25.00768956 -161.46695385 8.55926628 -127 -3 C-126.30036133 -3.23589844 -125.60072266 -3.47179687 -124.87988281 -3.71484375 C-85.77802837 -16.6292177 -37.82097923 -16.82302523 0 0 Z " fill="#FF001F" transform="translate(852,475)"/>
<path d="M0 0 C0.96216431 -0.00100708 1.92432861 -0.00201416 2.91564941 -0.00305176 C19.02569633 0.0082863 34.73412787 0.85674119 50.6875 3.25 C51.72165039 3.39985352 52.75580078 3.54970703 53.82128906 3.70410156 C60.80762799 4.73272477 67.7497169 5.93534478 74.6875 7.25 C75.54311523 7.40629883 76.39873047 7.56259766 77.28027344 7.72363281 C136.88580058 18.86075839 193.44741548 48.66388296 239.6875 87.25 C241.11642578 88.39855469 241.11642578 88.39855469 242.57421875 89.5703125 C251.21647512 96.62799624 259.10130158 104.4473264 267 112.3125 C267.83943649 113.14417191 267.83943649 113.14417191 268.6958313 113.99264526 C275.83515349 121.07991003 282.42479724 128.36183868 288.6875 136.25 C289.71139005 137.46347078 290.74065012 138.67244918 291.77734375 139.875 C346.1297188 203.81841645 374.81405382 290.2500869 374.875 373.5625 C374.87608765 374.35602875 374.87717529 375.1495575 374.8782959 375.96713257 C374.87651635 387.42457704 374.42688407 398.8171993 373.6875 410.25 C370.90056269 408.92146969 368.38536433 407.43714437 365.8515625 405.67578125 C352.39456801 396.43564957 339.27053425 389.40316648 323.6875 384.25 C322.68674438 383.88660522 322.68674438 383.88660522 321.66577148 383.51586914 C315.65307029 381.38021025 309.66605985 380.19662692 303.375 379.1875 C302.33118164 379.00598389 301.28736328 378.82446777 300.21191406 378.63745117 C295.13939973 377.79216048 290.24489204 377.15397514 285.09765625 377.1484375 C272.82829459 377.04115192 272.82829459 377.04115192 268.81298828 373.68164062 C265.23427491 369.61904201 262.5617339 365.04966869 259.91650391 360.34570312 C257.10517729 355.55181602 253.27659058 351.46886286 249.6875 347.25 C248.87925781 346.25742187 248.07101562 345.26484375 247.23828125 344.2421875 C240.78752621 336.40009314 233.78274826 329.13181441 226.625 321.9375 C225.71532471 321.01864014 224.80564941 320.09978027 223.8684082 319.15307617 C217.7806813 313.09270984 211.4054856 307.59632276 204.6875 302.25 C203.4790132 301.24941506 202.27288145 300.24597093 201.0703125 299.23828125 C185.79554941 286.61477731 169.01201012 275.83884663 151.6875 266.25 C150.84558105 265.78384277 150.00366211 265.31768555 149.13623047 264.83740234 C97.502285 236.52502213 38.29581989 219.42571102 -20.79296875 219.01171875 C-21.95261139 219.00201553 -23.11225403 218.99231232 -24.30703735 218.98231506 C-28.03806053 218.95750305 -31.76890269 218.94480302 -35.5 218.9375 C-36.77306 218.93488159 -38.04612 218.93226318 -39.35775757 218.92956543 C-59.32406237 218.92516525 -78.63519993 219.76654535 -98.3125 223.25 C-99.79024902 223.50620117 -99.79024902 223.50620117 -101.29785156 223.76757812 C-106.2748031 224.6516761 -111.21321019 225.65154813 -116.14306641 226.76757812 C-118.29207689 227.24545847 -120.4458469 227.68227275 -122.60546875 228.109375 C-154.1394324 234.4847043 -183.66256983 246.90729031 -212.3125 261.25 C-213.10060059 261.64010254 -213.88870117 262.03020508 -214.70068359 262.43212891 C-233.88117607 271.97310652 -251.61611104 283.87001707 -268.3125 297.25 C-269.32570313 298.05050781 -270.33890625 298.85101563 -271.3828125 299.67578125 C-277.2447141 304.37699293 -282.79762193 309.35781987 -288.29296875 314.4765625 C-290.55146345 316.57698936 -292.87028283 318.59326323 -295.2109375 320.6015625 C-299.31217035 324.17744487 -303.05402122 328.01090525 -306.75 332 C-307.40613281 332.70608398 -308.06226563 333.41216797 -308.73828125 334.13964844 C-313.83858856 339.66582133 -318.71144268 345.29830972 -323.3125 351.25 C-323.84810547 351.93481445 -324.38371094 352.61962891 -324.93554688 353.32519531 C-343.41333052 377.02932276 -360.1122803 403.39369059 -370.296875 431.8203125 C-371.3125 434.25 -371.3125 434.25 -373.3125 435.25 C-373.80321987 432.0850184 -374.27768932 428.91777672 -374.75 425.75 C-374.88470703 424.88246094 -375.01941406 424.01492188 -375.15820312 423.12109375 C-377.51146197 407.16485086 -377.55040477 391.09435072 -377.5625 375 C-377.56383942 373.94229401 -377.56517883 372.88458801 -377.56655884 371.79483032 C-377.56197372 355.0548842 -376.76087826 338.82590387 -374.3125 322.25 C-374.1028461 320.62273158 -373.89565532 318.99514314 -373.69140625 317.3671875 C-369.28470489 284.1813094 -358.52319013 250.9913963 -344.44287109 220.68847656 C-343.38350677 218.40317831 -342.3537335 216.107013 -341.33203125 213.8046875 C-330.66145087 190.05324385 -316.37159186 167.70884305 -300.3125 147.25 C-299.68472656 146.44175781 -299.05695313 145.63351563 -298.41015625 144.80078125 C-284.90689387 127.65246645 -270.29429533 111.00663724 -253.859375 96.60986328 C-252.19612136 95.14769113 -250.55145586 93.6660312 -248.90625 92.18359375 C-230.41573535 75.67662069 -209.78672115 61.58470729 -188.3125 49.25 C-187.52020996 48.79367188 -186.72791992 48.33734375 -185.91162109 47.8671875 C-156.17323095 30.8705756 -124.48469862 18.66922672 -91.3125 10.25 C-90.68891602 10.0904483 -90.06533203 9.93089661 -89.42285156 9.76651001 C-79.21154963 7.17691863 -69.02341747 5.26132007 -58.58300781 3.86694336 C-56.31147089 3.56236201 -54.0425493 3.24202244 -51.7734375 2.91992188 C-34.53906234 0.52548076 -17.38524721 0.01276946 0 0 Z " fill="#FFCE00" transform="translate(514.3125,86.75)"/>
</svg>
